<svg width="28" height="28" viewBox="0 0 28 28" fill="none" xmlns="http://www.w3.org/2000/svg">
<path d="M16.0429 21.3063C13.8665 20.498 11.628 20.3736 9.57599 20.9333C8.14581 21.3063 6.77781 22.0525 5.53417 22.9852L4.66361 23.7314L4.41489 23.9802L4.97452 24.4776C5.0367 24.4776 5.03671 24.5398 5.09889 24.602C5.22325 24.7263 5.34763 24.7885 5.53417 24.9129L5.90725 25.1616L6.28034 24.8507C6.34252 24.7885 6.46689 24.6642 6.59125 24.602C7.71052 23.6692 8.95415 23.0474 10.26 22.7365C11.9389 22.3012 13.7422 22.3634 15.5454 23.0474C17.0378 23.6071 20.0847 24.2911 23.7534 22.7365L23.8778 22.6743L24.0643 22.4878C24.0643 22.4256 24.1265 22.4256 24.1887 22.3634C24.4996 21.9903 24.8105 21.6172 25.0593 21.182L26.3029 19.2543L24.3131 20.3736C21.3905 21.9903 18.7167 22.3012 16.0429 21.3063Z" fill="#55B02E"/>
<path d="M7.52397 14.5907C9.20288 14.1554 11.0062 14.2176 12.8094 14.9016C14.7992 15.6478 19.8982 16.7049 25.6189 11.5438L26.5516 10.6111L26.6138 10.5489L26.8625 10.3002L26.7381 9.98927C26.676 9.74054 26.5516 9.42964 26.4272 9.11873L26.1163 8.24817L25.4945 8.86999C25.4323 8.99435 25.308 9.05653 25.1836 9.1809C22.4476 11.9791 18.2192 14.8395 13.3691 13.0984C11.1927 12.29 8.95415 12.1656 6.90215 12.7253C4.91233 13.2849 3.17124 14.342 1.55451 15.8344V15.7722L0.621784 16.7671C0.621784 16.8293 0.559614 16.8293 0.497432 16.8915L0.310875 17.078L0.373061 17.3267C0.435242 17.6376 0.559602 17.9485 0.621784 18.2594L0.994879 19.2544L1.6167 18.446C1.67888 18.3216 1.80324 18.2595 1.86542 18.1351C3.17124 16.9536 4.97451 15.2747 7.52397 14.5907Z" fill="#55B02E"/>
<path d="M1.49235 13.4714C2.92253 11.9791 4.53925 11.0463 6.28034 10.5489C7.95925 10.1136 9.76252 10.1758 11.5658 10.8598C17.1622 12.9118 22.0123 9.55399 24.1265 7.75071L24.9349 6.94236L25.2458 6.69361L24.9971 6.32054C24.8105 6.13399 24.6862 5.88526 24.4996 5.63653L24.1265 5.13907L23.6912 5.57435C23.6291 5.63653 23.5047 5.76089 23.4425 5.82307C20.8309 8.31034 16.7891 10.8598 12.1876 9.11872C10.0112 8.31036 7.7727 8.18599 5.7207 8.74563C4.41489 9.11872 3.17125 9.74053 1.92761 10.5489L0.621788 11.606C0.497424 11.7304 0.435242 11.7925 0.310879 11.9169L0.186526 12.0413V12.2278C0.124345 12.6631 0.124337 13.0984 0.0621551 13.4714L-3.05176e-05 15.026L1.05707 13.9067C1.18143 13.7823 1.3058 13.5958 1.49235 13.4714Z" fill="#55B02E"/>
<path d="M17.8462 25.5347L17.7218 25.9078L17.8462 25.5347C17.6596 25.4725 17.5353 25.4103 17.3487 25.3481C15.1724 24.5398 12.9338 24.4154 10.8818 24.9751C10.4465 25.0994 10.0113 25.2238 9.576 25.4103L8.08362 26.0943L7.71054 26.2809L8.95418 26.7162C9.32727 26.8405 9.70035 26.9649 10.0734 27.0892L10.26 27.1514L10.4465 27.0892C10.6331 27.0271 10.8196 26.9027 11.0062 26.9027C11.1305 26.9027 11.2549 26.8405 11.3793 26.7783C12.8716 26.4052 14.4883 26.4052 16.2294 26.9649C16.416 27.0271 16.5404 27.0893 16.7269 27.1514L17.0378 27.2758L17.2244 27.2136C17.6596 27.0892 18.1571 26.9649 18.5302 26.7783L20.2713 26.1565L18.468 25.7212C18.2814 25.6591 18.0327 25.5969 17.8462 25.5347Z" fill="#55B02E"/>
<path d="M27.36 12.6631L26.4273 13.5958C26.3029 13.7202 26.1786 13.8445 26.0542 13.9689C23.5047 16.394 19.4007 19.0056 14.7993 17.2645C12.6229 16.4562 10.3844 16.3318 8.33237 16.8915C6.40473 17.4511 4.66363 18.446 3.10908 19.9384L2.30073 20.8089L2.052 21.1198L2.30073 21.4929C2.48727 21.7416 2.61164 21.9282 2.73601 22.1769L3.10908 22.7365L3.54436 22.1769C3.60654 22.1147 3.7309 21.9904 3.79309 21.9282C5.28545 20.3114 6.90218 19.3165 8.76763 18.8191C10.4465 18.3838 12.2498 18.446 14.0531 19.13C15.6076 19.6896 17.2244 19.8762 18.8411 19.6896C21.7015 19.3787 24.5618 17.762 26.676 15.9587C26.8004 15.8344 26.9247 15.7722 27.0491 15.6478L27.2356 15.4613V15.2747C27.2356 14.9016 27.2978 14.4664 27.2978 14.0933L27.36 12.6631Z" fill="#55B02E"/>
<path d="M3.73088 6.94238L3.54434 6.56928L3.73088 6.94238C4.10397 6.75583 4.53926 6.63146 4.91235 6.5071C6.59126 6.07183 8.39453 6.13401 10.1978 6.81801C11.3793 7.25328 12.5607 7.43983 13.8665 7.43983C16.4782 7.43983 19.0898 6.5071 21.5149 4.70383L22.4476 3.95764L22.7585 3.70892L22.1989 3.27364C22.0123 3.08709 21.7636 2.90055 21.5149 2.77619L21.1418 2.52747L20.8309 2.77619C20.7065 2.83837 20.6443 2.96273 20.52 3.02491C17.2243 5.51219 13.9287 6.19619 10.8196 5.01474C8.58108 4.20638 6.34252 4.01983 4.10397 4.70383C3.91743 4.76601 3.73088 4.82819 3.48216 4.89037L3.3578 4.95255L3.17125 5.13909C3.17125 5.20127 3.10908 5.20128 3.04689 5.26346C2.79817 5.63655 2.48725 5.94747 2.23852 6.32056L1.05707 8.12383L2.98471 7.12892C3.29562 7.12892 3.54433 7.00456 3.73088 6.94238Z" fill="#55B02E"/>
<path d="M8.82981 2.71399L9.01634 2.77617C9.82471 3.08708 11.0684 3.39799 12.6229 3.39799C14.2396 3.39799 15.7942 3.0249 17.3487 2.40308L19.2763 1.47035L17.9705 1.03509C17.5975 0.910728 17.2243 0.786364 16.7891 0.724182H16.6025L16.416 0.786349C16.2295 0.848531 16.0429 0.972909 15.8563 1.03509C13.9909 1.71909 12.1254 1.84345 10.3222 1.346C10.1356 1.28382 9.94908 1.22163 9.76253 1.15944L9.576 1.09726L9.38944 1.15944C9.01635 1.28381 8.64327 1.40818 8.27017 1.59472L6.83998 2.21654L8.33236 2.6518C8.45672 2.58962 8.64326 2.65181 8.82981 2.71399Z" fill="#55B02E"/>
</svg>
